<svg id="Layer_1" data-name="Layer 1" xmlns="http://www.w3.org/2000/svg" viewBox="0 0 877.09 884.56"><defs><style>.cls-1{fill:#4d4d4d;}.cls-2{fill:#fff;}.cls-3{fill:#3e3d40;}</style></defs><path class="cls-1" d="M548.11,267.5C518,131.93,448.7,48,316.77,48S77.91,154.94,77.91,286.87V932.56H954.83V659.16c0-52.15,10.9-175.11-142-173.5C629.9,487.59,562.12,330.52,548.11,267.5Z" transform="translate(-77.91 -48)"/><rect class="cls-2" x="48.58" y="686.48" width="776.86" height="182.92"/><rect class="cls-3" x="99.69" y="668.18" width="40.34" height="124.27"/><rect class="cls-3" x="169.9" y="668.18" width="40.35" height="124.27"/><rect class="cls-3" x="240.1" y="668.18" width="40.35" height="124.27"/><rect class="cls-3" x="591.95" y="668.18" width="40.35" height="124.27"/><rect class="cls-3" x="662.16" y="668.18" width="40.35" height="124.27"/><rect class="cls-3" x="732.36" y="668.18" width="40.35" height="124.27"/><rect class="cls-3" x="380.52" y="668.18" width="40.35" height="124.27"/><rect class="cls-3" x="451.53" y="668.18" width="40.35" height="124.27"/><rect class="cls-3" x="114.91" y="774.71" width="8.28" height="101.68"/><rect class="cls-3" x="187" y="774.71" width="8.28" height="101.68"/><rect class="cls-3" x="395.75" y="774.71" width="8.28" height="101.68"/><rect class="cls-3" x="467.84" y="774.71" width="8.28" height="101.68"/><rect class="cls-3" x="255.87" y="774.71" width="8.28" height="101.68"/><rect class="cls-3" x="607.18" y="774.71" width="8.28" height="101.68"/><rect class="cls-3" x="679.27" y="774.71" width="8.28" height="101.68"/><rect class="cls-3" x="748.13" y="774.71" width="8.28" height="101.68"/><rect class="cls-3" x="324.73" y="677.87" width="8.28" height="198.52"/><rect class="cls-3" x="536.16" y="677.87" width="8.28" height="198.52"/></svg>